<?xml version="1.0" encoding="UTF-8" standalone="no"?>
<!DOCTYPE svg PUBLIC "-//W3C//DTD SVG 1.1//EN" "http://www.w3.org/Graphics/SVG/1.1/DTD/svg11.dtd">
<svg version="1.1" xmlns="http://www.w3.org/2000/svg" xmlns:xlink="http://www.w3.org/1999/xlink" preserveAspectRatio="xMidYMid meet" viewBox="0 0 220 228" width="220" height="228"><defs><path d="M61.86 84.97C54.09 84.97 46.53 86.48 39.62 89.72C39.62 85.76 39.62 65.13 39.62 27.82L7.22 41.12C7.22 97.37 7.22 128.61 7.22 134.86C7 136.59 7 138.1 7 139.83C7.01 139.83 7.09 139.83 7.22 139.83L7.22 204.42L39.62 204.42C39.62 163.72 39.62 141.11 39.62 136.59C41.13 125.79 50.42 115.37 61.86 115.37C74.18 115.37 84.33 127.3 84.33 139.83C84.33 144.14 84.33 165.67 84.33 204.42L116.73 204.42C116.73 165.67 116.73 144.14 116.73 139.83C116.73 125.14 110.9 111.32 100.53 100.95C90.16 90.58 76.55 84.97 61.86 84.97Z" id="bMdhw795v"></path><path d="M177.04 204.42C198.86 204.42 216.57 186.7 216.57 164.89C216.57 143.07 198.86 125.19 177.04 125.19C176.14 125.19 168.88 125.19 167.97 125.19C164.73 125.19 161.86 122.77 161.86 119.74C161.86 116.5 164.73 113.91 167.97 113.91C170.98 113.91 186.03 113.91 213.12 113.91L213.12 80C186.03 80 170.98 80 167.97 80C146.16 80 128.44 97.93 128.44 119.74C128.44 141.56 146.16 157.94 167.97 157.94C168.88 157.94 176.14 157.94 177.04 157.94C180.07 157.94 182.66 160.86 182.66 163.89C182.66 167.13 180.07 170.5 177.04 170.5C174.06 170.5 160.52 170.5 136.43 170.5C133.3 170.5 129.99 170.5 126.5 170.5L126.5 204.42C153.46 204.42 170.3 204.42 177.04 204.42Z" id="eck4oSI1v"></path></defs><g><g><g><use xlink:href="#bMdhw795v" opacity="1" fill="#ffffff" fill-opacity="1"></use><g><use xlink:href="#bMdhw795v" opacity="1" fill-opacity="0" stroke="#000000" stroke-width="0" stroke-opacity="1"></use></g></g><g><use xlink:href="#eck4oSI1v" opacity="1" fill="#ffffff" fill-opacity="1"></use><g><use xlink:href="#eck4oSI1v" opacity="1" fill-opacity="0" stroke="#000000" stroke-width="0" stroke-opacity="1"></use></g></g></g></g></svg>